<svg width="200" height="300" viewBox="0 0 200 300" fill="none" xmlns="http://www.w3.org/2000/svg">
  <!-- Peace sign hand gesture -->
  <path d="M100 50 L100 150 M100 150 L130 180 M100 150 L70 180" stroke="#000" stroke-width="8" stroke-linecap="round"/>
  <ellipse cx="100" cy="220" rx="35" ry="40" fill="white" stroke="#000" stroke-width="6"/>
  <path d="M65 220 Q65 180 80 160 L80 90 Q80 70 100 70 Q120 70 120 90 L120 160 Q135 180 135 220" fill="white" stroke="#000" stroke-width="6"/>
  <path d="M80 90 L80 160 Q85 175 100 175 Q115 175 120 160 L120 90" fill="white"/>
  <line x1="100" y1="70" x2="100" y2="175" stroke="#000" stroke-width="5"/>
  <path d="M75 260 L75 240 Q75 220 85 210 L115 210 Q125 220 125 240 L125 260 Q125 280 100 280 Q75 280 75 260 Z" fill="white" stroke="#000" stroke-width="6"/>
  <!-- Shadow -->
  <ellipse cx="105" cy="285" rx="40" ry="10" fill="#00000020"/>
</svg>
